<?xml version="1.0"?>
<svg xmlns:rdf="http://www.w3.org/1999/02/22-rdf-syntax-ns#" xmlns="http://www.w3.org/2000/svg" xmlns:cc="http://creativecommons.org/ns#" xmlns:dc="http://purl.org/dc/elements/1.1/" xmlns:svg="http://www.w3.org/2000/svg" id="svg3132" height="297mm" width="210mm" version="1.1">
  <g id="layer1">
    <g id="g2989" transform="translate(137.03 103.85)">
      <path id="path5965" d="m522.44 188.06s-1.7834 1.4331-2.4563 4.9127c-1.2345 0.58338-2.1202 2.1033-2.1834 2.8657-0.0322 0.38889-0.33202 4.9916-0.68233 10.235-0.42148 6.308-1.1765 9.9445-2.3199 10.781-0.69382 3.3588-2.3525 5.8449-3.0022 8.5972-3.0384 1.8353-6.3822 6.343-7.9149 7.2326-0.80594-0.46301-2.7275-0.14673-4.2304 0.81878s-5.412 2.1289-8.5972 2.5928c-4.2884 0.62458-6.6382 2.0636-7.2326 4.5033l-6.8232 1.6376s4.6108 2.2353 6.6867 1.774c0.12209-0.0271 0.16925 0.0391 0.27292 0 0.0115 0.0462-0.0122 0.0899 0 0.13646 0.64062 2.4496 0.73041 2.5037 11.19 2.7293 7.691 0.16586 12.412 1.9698 13.646 5.1856 1.2266 3.1966-3.3621 10.628-12.555 20.47-3.4944 6.4037-6.4112 12.626-6.0044 20.06 0 9.7262-0.13532 10.316-8.7337 20.197-1.7222 1.979-3.1379 4.1174-3.1387 4.6398-0.00082 0.52234-1.149 2.0083-2.4563 3.4116-1.3074 1.4033-3.1942 4.8134-4.2304 7.5055-1.1779 3.0602-3.7266 6.2134-6.6867 8.3243-3.6596 3.2868-2.7663 6.6954-9.416 10.371-5.362 2.2291-10.78 2.215-16.649 0.40939-3.5347-0.88715-15.147 1.9098-15.147-0.13645 0-0.73352-3.5348-4.6865-4.9127-6.5503l8.8701-6.5502 3.0022-3.0022c2.0807-2.0807 2.3316-7.8793 1.774-10.508-0.33846-1.5953 1.8974-5.2368 2.047-7.2326 0.76145-10.156 0.52424-8.8037-1.5011-12.282-2.096-3.5993-2.7732-3.8943-8.7337-4.2304-3.595-0.20271-7.1517-0.87921-7.7784-1.5011-0.62673-0.62187-3.1115-1.2282-5.595-1.2282-3.288 0-4.9331-0.5732-5.8679-2.3199-0.70612-1.3194-2.036-2.4564-3.0022-2.4564-0.96627 0-1.774-0.51609-1.774-1.2282 0-0.80516 1.3814-1.0217 3.5481-0.54585 2.0012 0.43954 3.7789 0.18469 4.2304-0.54585 1.1298-1.8281-5.1373-3.882-9.143-3.0022-2.6037 0.57184-3.4116 0.22685-3.4116-1.2282 0-1.2652-1.0723-1.7691-3.2751-1.774-1.8141-0.004-4.7972-0.92505-6.6867-1.9105-6.819-3.5564-38.095-1.6349-42.44 2.5928-0.81152 0.78954-3.7885 1.8533-6.5503 2.3199-2.7617 0.46656-6.4334 1.6514-8.1878 2.7293-4.58 2.8138-10.813 8.2714-10.781 9.416 0.015 0.53734 1.7341 1.8376 3.821 2.8657s3.9949 2.4321 4.2304 3.1387c0.23553 0.70657-3.3958 5.114-8.0514 9.8254-6.923 7.0058-8.4021 9.1972-8.1878 12.009 0.16274 2.1362-0.83958 4.9998-2.7293 7.5055-4.2286 5.607-9.5525 17.057-9.5525 20.742 0 2.7121 0.52516 3.1386 4.2304 3.1387 4.7556 0 4.9533 0.36649 2.5928 8.8701-5.0949 18.354-6.0537 31.796-2.1834 31.796 1.9172 0 2.0963 0.89071 1.6376 7.2326-0.44861 6.2017-0.27245 7.2326 1.5011 7.2326 2.5119 0 6.7889-2.9132 14.602-10.098l5.868-5.4586 0.68231 10.508c0.9007 13.233 2.3216 17.514 5.7315 18.013 1.5932 0.23322 2.5928-0.23753 2.5928-1.2282 0-0.89527 2.5965-4.2832 5.868-7.5055l6.0044-5.8679 1.3647 3.4116c3.6354 9.562 3.6884 13.615 0.40938 16.103 2.1537 1.0407 2.8152 8.6586 3.4116 14.192-0.0315 3.958 0.36106 8.0288 0.95525 9.1431 0.59424 1.1143 1.9221 5.7419 2.8657 10.235 1.2147 5.7841-0.36148 4.6346-2.2257 7.2363-5.5172-4.8011-13.674-8.9524-29.791-16.766l-8.1456-4.5456c-2.4174-0.68327-6.4299-3.4388-8.8701-5.6892-5.8143-5.3619-9.6634-12.748-15.924-12.714-1.687-0.82712-3.4118-1.0659-5.0492-1.0917l-0.68233-3.6845c-0.17659-0.88149-1.1552-1.6154-2.047-1.5011l-1.3646 0.13646c-5.3836-24.551-14.606-67.01-15.557-71.234-2.8352-12.6-4.7067-22.731-6.4138-32.069l-1.5011-7.369 8.5972-1.3646c17.443-8.3604 16.357-9.9464 18.286-22.38-1.0656-13.592-6.8074-25.88-17.058-36.709-10.165-10.738-16.908-14.978-27.293-16.785-19.294-4.5141-35.636 4.3842-33.979 24.973 0.18753 12.47 4.5541 25.705 14.465 34.798 12.181 11.34 19.618 13.642 27.156 15.284 4.1599 0.906 5.6442 1.5974 5.4586 3.1387 6.7227 29.846 12.188 59.914 18.15 89.93 0.33799 2.2396 1.5829 7.1731 2.5928 11.054 0.62279 3.6628 1.1915 6.5393 1.774 9.5525l-1.0917 0.13645c-0.89171 0.11433-1.4048 0.89254-1.2282 1.774l0.68231 3.4116c-0.61818-0.0792-1.19-0.30489-1.774-0.54587-5.1693-2.1328-8.4388 0.84271-8.0514 5.7315 0.84152 0.6859 1.6992 2.3169 0.4094 4.3668-0.99559 1.5823 0.376 4.6596 0.81877 5.1856 0.44286 0.52593 1.2655 1.2121 0.95526 3.548-0.33803 2.545-1.5161 4.2229 1.0917 7.7784 0.56754 0.7738-1.0071 4.236 2.5928 6.8232 0.53567 0.38498 7.006 2.7035 7.9149 3.0022 0.37995 0.12485 1.9297 0.57323 3.4116 0.95524l0.13647 0.81879c0.17663 0.88149 1.0188 1.4789 1.9105 1.3646l2.8657-0.40938c1.895 0.73992 4.1729 1.1994 7.5055 1.6376 8.0565-1.6022 12.646 7.572 17.877 11.463 1.4876 1.1066 2.6002 5.103 6.4138 7.2326 2.5233 3.6295 7.1117 9.5931 6.926 11.634 0.77747-0.54534 4.631 3.6674 3.4004 6.2124 1.6095 0.46301 6.3006 2.1676 7.9596 3.715 0.79622 1.2572 4.5568 4.2866 4.082 5.7853 0.58589-1.272 5.4105 3.2982 6.6986 4.7224 1.1846 1.31 4.4173 3.9928 8.5972 6.4138 1.8831 1.2856 4.4681 2.8342 6.6867 3.1387 3.8711 1.3312 8.9756 1.2779 9.2926 1.3231 10.491 0.54342 14.949-14.14 20.729-22.475 1.3456-2.3606 4.2082-23.554 4.2304-31.66 0.0898-7.0268 1.6478-13.49 3.0022-19.924 0.97345-2.8222 2.4015-3.305 4.5033-5.3221 2.2052-1.1302 4.3718-2.5132 4.7762-3.1387 0.43817-0.67747 3.8973-0.21219 8.4607 1.2282 4.2132 1.3298 8.1873 3.1082 12.145 4.2304 7.5986 2.1546 10.838 3.468 13.783 5.3221 0.98949 0.62298 3.1666 1.0977 6.9597 2.8658 3.3122 3.9305 8.3652 5.8889 8.5972 10.644-0.47131 1.3194 0.37987 4.5077-0.13646 5.1856-1.4274 1.8741-4.5629 28.695-4.5033 38.483 0.029 4.7562-0.36873 10.369-0.81877 12.418-0.45001 2.049-0.2693 5.1891 0.40939 6.9596 0.6787 1.7705 1.5034 10.222 1.774 18.696 0.27065 8.4737 0.97462 15.671 1.6376 16.103 1.1785 0.76782 3.0503 9.2611 3.0022 13.919-0.0133 1.289 0.40568 2.9944 0.95525 3.6845 0.5496 0.69009 2.1019 6.3333 3.548 12.555 1.4461 6.2214 4.3243 14.798 6.2773 19.105 2.7798 6.0412 4.3853 14.728 8.3243 25.109 2.2751 2.4837 0.68235 5.5926 0.68232 6.0044 0 1.0257-5.7956 6.4138-7.0961 6.4138-10.313 10.175-13.519 20.883-16.103 35.208-1.5959 1.596-1.1684 23.398-1.3646 25.246-0.17044 0.10673-2.2914 3.6966-3.1387 6.0044 0 1.3647-1.9215 4.8227-4.2304 7.642-2.3088 2.8193-4.7067 6.0279-5.3221 7.0961-1.3582 2.3577-2.1017 3.3082-6.0044 7.7784-2.0206 2.0422-6.4853 6.9223-9.416 7.642-2.9692 0.72909-1.3846 1.1852-3.2751 2.7293-4.155 3.3935-7.6832 6.9973-8.8701 11.326-1.3664 4.9835 5.3761 13.307 6.5503 19.924 2.9461 6.7917 2.9276 8.2271 3.548 14.465 0.10363 1.0419-0.68555 2.2138-0.27291 3.1387 0.83376 1.8686 1.905 9.5547 1.0917 13.51-1.2167 3.6082-2.5928 7.5758-2.5928 13.1 0 1.9893-0.17525 3.1807-0.68232 5.1856-0.99494 3.8963 1.1122 7.6689 4.7762 9.1431 1.2275 4.4055-0.38915 9.2377 0.81877 7.9149 2.1657-2.7938 3.7102-4.897 4.0939-7.369 2.8174-0.64028 3.5501-2.1344 4.6398-3.4116 1.0373-2.0555 0.76242-2.1861 1.774 1.5011 0.9908 3.6113 2.5417 6.9293 5.0492 8.4608 0.62685 0.38288 1.1908 0.76379 1.9105 0.95524 0.003 0.0111 0.1338-0.0111 0.13646 0 1.0268 4.258-0.4727 9.3365 0.68233 8.0513 2.1837-2.8635 3.6304-5.6529 3.9574-8.1878 0.6475-0.18987 1.2052-0.47135 1.774-0.81877 4.05-3.3784 5.3148-6.0271 6.2773-10.917 0.1738-1.219 0.0562-0.22794 0.40939-1.2282 1.392 2.1024 2.8316 4.0567 6.4138 4.0939 2.2435 4.0654 1.6901 9.0712 2.5928 7.5055 1.6617-3.511 2.6331-6.0891 2.1834-8.8701 2.1378-1.4163 3.4863-4.0297 3.2751-6.6867 0.00043 0.006-0.009-0.27115 0-0.27293-0.002-0.0342 0.002-0.0989 0-0.13646-0.0189-0.34223-0.10114-0.84233-0.13646-1.3646-0.0392-0.57965-0.0391-1.0572-0.13647-1.774-0.0548-0.40323-0.21782-1.0028-0.40939-1.6376 1.2028 1.3508 2.4675 2.9673 3.548 5.0492 0.30918-3.1575 0.42665-5.7067-0.13645-8.4607 0.0215-0.0335-0.0211-0.10261 0-0.13647 1.3795-2.2125 1.8659-5.251 1.0917-8.3243-2.9144-6.5604-5.2217-10.581-6.4138-17.467-1.1666-5.766-1.3544-12.415-5.595-20.742 0.021-1.0979-0.12145-2.279-0.27293-3.6845 2.4052-9.2564 5.435-16.902 11.463-20.47 0.63773-1.7421 4.5779-6.6111 8.5972-10.781 4.0194-4.1695 7.2326-7.9467 7.2326-8.4608s1.5691-3.2725 3.5481-6.0044 3.6845-5.4368 3.6845-6.1408c0-1.3657 7.2246-11.065 8.7337-11.736 0.49474-0.21988 0.81881-1.0564 0.81876-1.774 0-0.71768 0.64808-2.0972 1.5011-3.1387s2.3877-4.0481 3.2751-6.6867c0.88738-2.6388 3.1613-6.7393 5.0492-9.1431 1.8878-2.4038 3.4116-4.8092 3.4116-5.3221 0-0.51279 0.70598-1.8244 1.6376-2.8657 0.93148-1.0415 3.6365-6.5445 6.0044-12.282 3.6924-8.9466 4.3456-12.159 4.7762-22.244 0.76839-17.996 2.0223-25.508 4.3668-27.156 4.1483-2.9154 13.658-11.072 17.467-15.011 2.1523-2.2259 5.3348-4.9319 6.9596-6.0044s6.9181-4.7738 11.872-8.1878c10.722-6.5894 19.742-14.89 29.886-22.244 1.4193-1.4322 3.017-2.8648 4.9127-3.6845 5.6741-1.4565 9.1066-8.2914 12.282-23.881 3.2223-15.821 2.9377-19.496-1.9105-24.7-1.3293-1.4269-2.0215-2.5827-1.5011-2.5928 0.52049-0.0101 0.3322-0.4707-0.40938-0.95524-0.74162-0.48473-2.4849-2.7403-3.9574-5.0492-1.4726-2.3088-2.3353-3.0934-1.9105-1.774 0.5749 1.7856-0.0279 1.3968-2.3199-1.2282-1.6936-1.9396-5.8471-6.4307-9.2795-10.098-3.4324-3.6677-6.1581-7.1472-6.0044-7.642 0.15365-0.49467-0.44434-0.81877-1.3647-0.81877-2.0556 0-12.828-9.963-12.828-11.872 0-1.1969-1.7295-1.9416-2.5928-1.0917-0.16493 0.16231-2.0131-0.83823-4.0939-2.3199s-4.6447-2.7293-5.595-2.7293c-2.2015 0-5.9229-4.1754-4.7762-5.3221 0.47603-0.47607-0.12209-0.47677-1.3646 0-1.5719 0.60319-1.9681 0.43049-1.3646-0.54585 0.5549-0.89777-0.0574-1.3646-1.6376-1.3646-1.3583 0-2.4563-0.53962-2.4564-1.2282 0-0.68861-0.85564-1.1491-1.774-0.95525-0.91825 0.19379-3.2661-1.4041-5.3221-3.548-2.0559-2.1439-4.9872-3.821-6.4138-3.821-8.7776-3.2232-9.5796-13.698-11.19-22.244-0.3814-2.6387-1.6031-6.3453-2.7293-8.3243-2.8964-5.0895-6.9674-17.714-8.7337-27.566-0.82768-4.6167-2.3793-10.626-3.548-13.237-0.58866-3.2854-2.055-6.0671-3.0022-9.0066-1.9733-2.1804-1.8353-2.673 1.2282-9.143 1.7698-3.7379 3.5569-8.4553 3.9574-10.508 0.40049-2.0524 1.6671-6.0474 2.8657-8.8701 1.5678-3.6923 2.035-6.6122 1.5011-10.508-0.61952-4.5203-0.44263-5.8405 1.6376-7.7784 1.4892-1.3874 2.9193-4.6312 3.4116-8.0514 0.45306-3.1473 1.5818-6.624 2.5928-7.7784s1.4681-2.1834 0.95523-2.1834c-0.51284 0-0.39295-0.6765 0.27293-1.5011 0.66586-0.82456 1.591-3.7846 2.047-6.5502 0.45599-2.7656 1.5323-5.6469 2.4564-6.4138 1.2765-1.0594 1.3893-1.8535 0.40938-3.6845-1.2141-2.2686-0.5796-10.792 1.0917-15.147 0.43158-1.1247 0.0975-1.5737-0.68232-1.0917-0.70266 0.43424-1.5542 0.10973-1.9105-0.8188-0.87393-2.2774 0.27428-10.899 1.5011-11.326 0.53954-0.18793 0.77713-1.757 0.54586-3.5481l-0.40939-3.2751 7.369 3.4116c1.9083 0.72029 5.3578 2.1936 5.7315 2.3199 1.158 0.39124 1.5579 1.1324 3.6514 0.49905 1.1518 0.59849 1.7686 1.3292 4.8983 2.8305-1.1493-3.0772-0.73871-3.1245-1.2689-4.7583 0.46945-0.27952 0.82417-0.64135 0.90702-0.89114 0.24589-0.74153-0.917-2.921-2.5928-4.9127-3.4632-4.6236-7.368-7.9085-7.7784-10.917 4.7148-0.14279 10.919 0.80325 16.649-0.13646 1.3583 0 2.3236-0.46051 2.1834-0.95526-0.12131-0.42823 1.0357-1.4726 1.9105-2.7293 3.5346-0.68354 8.2634 0.30366 6.5502-0.95526-1.2324-0.90557-3.4896-1.877-5.8679-2.4563-0.11768-0.44078-0.28136-0.82719-0.40939-0.95527-0.35721-0.35721-5.3919-0.73774-11.19-0.81876-9.9676-0.13932-10.555-0.31414-10.917-2.8658-0.0124-7.2902 5.1543-10.027 7.5055-15.147 2.4142-2.4142 3.2286-6.9792 2.5928-10.235l4.0939-4.2304s-2.3807-0.58137-5.7315 0.95524c-0.39092-0.27989-0.85442-0.40939-1.3646-0.40939-1.1918 0-3.3824 1.3734-4.9127 3.0022-6.3008 4.7765-8.4145 12.057-17.877 13.783-2.2735 0-2.8457-3.6993-3.0022-16.785-0.073-6.1025-4.1493-11.109-4.5033-11.463-0.0347-0.0347-0.82808 0.0217-1.5011 0l-0.95524-4.7762zm-288.89 50.219 3.548 0.40939 0.4094 1.3646-3.548-0.27291-0.4094-1.5011zm-1.0917 0.13647 0.27292 1.0917-3.2751-0.4094-0.13647-0.40939 3.1387-0.27292zm5.3221 0.27292 3.821 0.68232 0.27293 1.2282-3.548-0.40939-0.54585-1.5011zm-12.828 0.81879 3.548 0.40939 0.95524 3.9574-3.6845-0.40939-0.81878-3.9574zm-0.95527 0.27292 0.68233 3.4116-3.4116-0.54584-0.54587-1.3646 3.2751-1.5011zm18.559 0 3.6845 1.0917v0.27294l-3.6845-0.4094v-0.95524zm-13.237 0.27291 3.821 0.4094 0.68231 3.821-3.4116-0.54587-1.0917-3.6845zm4.7762 0.54586 3.4116 0.54587 0.81878 3.5481-3.4116-0.27293-0.81878-3.821zm4.2304 0.40941 3.4116 0.40939 1.0917 3.821-3.5481-0.27293-0.95524-3.9574zm-18.15 0.81878v0.95524l-1.2282-0.27292 1.2282-0.68232zm22.789 0 3.6845 0.27293 0.54587 3.6845-3.4116-0.54585-0.81878-3.4116zm4.5033 0.27293 2.5928 0.40939 1.0917 0.40939 0.95525 3.4116-3.5481-0.40937-1.0917-3.821zm-29.613 1.3646 2.7293 0.27292 0.81877 3.6845-3.4116-0.27293-0.81878-3.4116 0.68231-0.27292zm34.389 0.13647 3.9574 2.3199 0.27294 0.95523-3.6845-0.40939-0.54585-2.8657zm-30.704 0.40939 3.548 0.27293 0.81879 3.821-3.4116-0.40939-0.95524-3.6845zm4.5033 0.4094 3.4116 0.40938 1.0917 3.821-3.6845-0.54585-0.81878-3.6845zm-9.6889 0.27293 0.40939 2.3199-2.1834-0.54586 1.774-1.774zm14.329 0.13645 3.5481 0.68233 0.81878 3.548-3.4116-0.54584-0.95527-3.6845zm4.3669 0.68233 3.6845 0.40939 0.95524 3.548-3.6845-0.27292-0.95523-3.6845zm4.5033 0.40939 3.4116 0.54584 0.95525 3.6845-3.548-0.40939-0.81879-3.821zm4.6398 0.54584 3.4116 0.54586 0.81878 3.6845-3.5481-0.27295-0.68232-3.9574zm13.101 0.13647 0.54585 0.54585h-0.27292l-0.27293-0.54585zm-8.5972 0.54585 3.548 0.27293 0.95524 3.6845-3.5481-0.27293-0.95523-3.6845zm-34.662 0.27293 3.0022 0.4094 0.81877 3.6845-3.4116-0.40939-0.68232-3.1387 0.27293-0.54586zm39.302 0.27294 3.4116 0.40939 0.95525 3.6845-3.5481-0.40939-0.81878-3.6845zm-35.344 0.27292 3.6845 0.40939 0.68232 3.821-3.5481-0.40938-0.81878-3.821zm39.711 0.13647 1.6376 0.13646 2.3199 1.774 0.54586 2.3199-3.821-0.40939-0.68231-3.821zm-35.344 0.40939 3.548 0.40937 0.95524 3.821-3.4116-0.54585-1.0917-3.6845zm4.7762 0.54584 3.4116 0.54586 0.81879 3.548-3.5481-0.27292-0.68233-3.821zm-14.192 0.40939 0.40939 1.774-1.2282-0.40939 0.81879-1.3646zm18.696 0.13647 3.548 0.27292 0.95525 3.9575-3.4116-0.4094-1.0917-3.821zm4.7762 0.54585 3.2751 0.40939 0.8188 3.821-3.2751-0.40939-0.8188-3.821zm4.0939 0.40939 3.548 0.54587 1.0917 3.6845-3.821-0.40938-0.81877-3.821zm22.244 0.27294 1.774 1.6376h-1.5011l-0.27294-1.6376zm-17.74 0.40939 3.821 0.40939 0.54584 3.6845-3.4116-0.40939-0.95524-3.6845zm-33.297 0.54586 1.6376 0.13645 0.95524 3.6845-3.548-0.40939-0.13647-0.13646 1.0917-3.2751zm38.073 0 3.4116 0.40938 0.68233 3.548-3.4116-0.54585-0.68233-3.4116zm-35.208 0.27291 3.5481 0.27293 0.68231 3.821-3.4116-0.40939-0.81878-3.6845zm39.711 0 3.4116 0.4094 0.95523 3.9574-3.548-0.40939-0.81878-3.9574zm-35.071 0.4094 3.4116 0.54584 0.81877 3.821-3.4116-0.54585-0.81878-3.821zm39.574 0.40939 3.548 0.40939 0.68233 3.6845-3.4116-0.54586-0.81878-3.548zm-35.208 0.13645 3.4116 0.4094 1.0917 3.821-3.6845-0.27293-0.8188-3.9575zm39.711 0.27294 2.4563 0.27292 1.3646 1.6376 0.54586 2.1834-3.5481-0.4094-0.81876-3.6845zm-35.208 0.54586 3.5481 0.40939 0.6823 3.548-3.548-0.40938-0.68231-3.5481zm4.5033 0.27293 3.5481 0.40939 0.81878 3.548-3.4116-0.27293-0.95525-3.6845zm4.6398 0.54584 3.4116 0.27293 0.95523 3.9574-3.548-0.40939-0.81878-3.821zm4.3668 0.54586 3.5481 0.40939 0.81878 3.821-3.548-0.40939-0.81879-3.821zm4.3668 0.54585 3.548 0.40939 0.95525 3.821-3.4116-0.54586-1.0917-3.6845zm-35.071 0.54586 3.548 0.40939 0.81878 3.5481-3.548-0.40941-0.81878-3.548zm39.847 0 3.6845 0.40939 0.81877 3.6845-3.6845-0.27294-0.81878-3.821zm-35.208 0.27293 3.4116 0.54586 0.95524 3.6845-3.6845-0.54584-0.68231-3.6845zm39.574 0.27292 3.548 0.4094 0.95525 3.821-3.4116-0.54586-1.0917-3.6845zm-35.208 0.27294 3.6845 0.54586 0.68233 3.821-3.4116-0.54586-0.95524-3.821zm48.854 0 0.40939 0.40939h-0.40939v-0.40939zm-8.8701 0.40939 3.4116 0.40938 0.81876 3.5481-3.548-0.40939-0.68232-3.548zm-49.673 0.27292 0.68233 2.047-1.0917-0.27292 0.40939-1.774zm14.465 0 3.5481 0.40939 0.68232 3.6845-3.548-0.40939-0.68233-3.6845zm39.574 0.13646 3.6845 0.40939 0.81879 3.9574-3.6845-0.54585-0.81878-3.821zm-35.208 0.27293 3.548 0.54585 0.81878 3.6845-3.2751-0.40939-1.0917-3.821zm39.711 0.13646 0.95524 0.13647 3.0022 4.0939-2.8657-0.40939-1.0917-3.821zm-34.935 0.54586 3.5481 0.40939 0.81877 3.548-3.6845-0.27292-0.68233-3.6845zm4.3668 0.54585 3.5481 0.40939 0.95524 3.821-3.548-0.4094-0.95525-3.821zm4.5033 0.40939 3.4116 0.40941 0.81878 3.6845-3.5481-0.27292-0.68232-3.821zm4.5033 0.54587 3.548 0.40938 0.95525 3.9574-3.5481-0.40939-0.95524-3.9574zm-37.118 0.27292 0.95524 0.13646 0.95527 3.821-1.9105-0.13646v-3.821zm41.621 0.13646 3.548 0.68232 0.95525 3.548-3.5481-0.40939-0.95523-3.821zm-39.711 0.13646 3.6845 0.54586 0.81879 3.821-3.5481-0.40939-0.95523-3.9574zm4.6398 0.54586 3.5481 0.40939 0.95524 3.821-3.6845-0.54585-0.81878-3.6845zm39.711 0 3.5481 0.40939 0.68232 3.6845-3.5481-0.40939-0.68233-3.6845zm-35.208 0.54585 3.6845 0.54586 0.68231 3.6845-3.2751-0.40938-1.0917-3.821zm39.574 0 3.4116 0.40939 0.95525 3.6845-3.4116-0.27291-0.95523-3.821zm-34.935 0.54586 3.4116 0.54584 0.81879 3.4116-3.4116-0.13646-0.81876-3.821zm39.574 0 3.4116 0.40939 0.81879 3.821-3.4116-0.4094-0.8188-3.821zm4.6398 0.40939 3.2751 0.40938 0.27293 0.4094 0.81878 3.4116-3.5481-0.40939-0.81877-3.821zm-39.847 0.13645 3.5481 0.4094 0.95526 3.821-3.5481-0.40939-0.95526-3.821zm4.7762 0.68233 3.548 0.40939 0.81879 3.4116-3.548-0.40939-0.81878-3.4116zm4.5033 0.27293 3.548 0.40939 0.95525 3.9574-3.6845-0.27293-0.81878-4.0939zm4.3668 0.68232 3.5481 0.40939 0.68232 3.6845-3.5481-0.40939-0.68232-3.6845zm-33.707 0.40939 2.047 0.27292 0.68232 3.6845-1.9105-0.13646-0.81879-3.821zm38.21 0.13646 3.4116 0.40939 0.95523 3.821-3.548-0.54586-0.81879-3.6845zm-35.344 0.40939 3.5481 0.40938 1.0917 3.6845-3.5481-0.40939-1.0917-3.6845zm39.984 0 3.6845 0.68231 0.68232 3.4116-3.5481-0.27292-0.81879-3.821zm-35.208 0.40938 3.5481 0.40939 0.81877 3.6845-3.548-0.4094-0.8188-3.6845zm39.711 0.27293 3.5481 0.4094 0.81877 3.6845-3.4116-0.40938-0.95524-3.6845zm4.5033 0.27294 3.4116 0.54585 1.0917 3.821-3.5481-0.40939-0.95526-3.9574zm-39.847 0.13646 3.6845 0.27293 0.81876 3.9574-3.4116-0.54586-1.0917-3.6845zm52.948 0 0.40938 0.54586-0.13647 0.13646-0.27291-0.68232zm-48.308 0.40939 3.4116 0.54586 0.95526 3.6845-3.548-0.40939-0.8188-3.821zm39.711 0.40939 3.6845 0.27293 0.54586 3.6845-3.5481-0.4094-0.6823-3.5481zm-35.071 0.27293 3.4116 0.40939 0.81877 3.6845-3.548-0.68231-0.68232-3.4116zm39.574 0 3.5481 0.40939 0.95523 3.6845-3.4116-0.27292-1.0917-3.821zm-35.071 0.27293 3.5481 0.54585 0.95525 3.6845-3.5481-0.27292-0.95525-3.9574zm39.984 0.40939h0.13646l1.6376 3.6845-1.0917-0.13646-0.68232-3.548zm-35.344 0.40938 3.548 0.40939 0.68232 3.5481-3.5481-0.40939-0.6823-3.5481zm4.2304 0.27293 3.548 0.40939 0.95525 3.9575-3.6845-0.40939-0.81878-3.9575zm-33.707 0.54585 2.047 0.4094 0.95525 3.6845-2.0469-0.13645-0.95527-3.9575zm38.21 0.27295 3.6845 0.40938 0.68233 3.5481-3.5481-0.40939-0.81878-3.548zm-35.071 0.27292 3.548 0.40939 0.8188 3.6845-3.4116-0.54586-0.95525-3.548zm39.711 0 3.4116 0.54585 0.95523 3.6845-3.548-0.40938-0.81878-3.821zm-35.071 0.40939 3.5481 0.40939 0.95524 3.6845-3.6845-0.27292-0.81879-3.821zm39.711 0.27293 3.4116 0.40939 0.81878 3.6845-3.4116-0.40938-0.81878-3.6845zm-35.071 0.40939 3.2751 0.27292 1.0917 3.821-3.5481-0.68232-0.81879-3.4116zm39.574 0.13647 3.2751 0.40937 1.0917 3.6845-3.6845-0.54586-0.68232-3.548zm-35.208 0.27292 3.6845 0.54584 0.68232 3.5481-3.5481-0.40939-0.81878-3.6845zm39.574 0.13645 3.6845 0.54586 0.68232 3.6845-3.4116-0.54585-0.95524-3.6845zm-35.071 0.40939 3.6845 0.40939 0.68232 3.821-3.548-0.4094-0.81879-3.821zm39.984 0.13647 3.2751 0.40939 0.95525 3.821-3.6845-0.54587-0.54586-3.6845zm-35.481 0.27292 3.5481 0.40941 0.95524 3.9574-3.548-0.40938-0.95526-3.9575zm39.711 0.27294 1.6376 0.27293 0.95523 3.548-1.6376 0.13647-0.95524-3.9574zm-34.935 0.40939 3.4116 0.40939 0.81878 3.5481-3.4116-0.13646-0.81879-3.821zm4.2304 0.40939 3.4116 0.54586 1.0917 3.6845-3.5481-0.40938-0.95523-3.821zm-33.434 0.54586 1.774 0.40938 0.95525 3.548-1.0917 0.13647-1.6376-4.0939zm38.073 0.13646 3.5481 0.40938 0.68232 3.6845-3.5481-0.40938-0.68232-3.6845zm4.6398 0.27292 3.4116 0.54585 1.0917 3.821-3.821-0.54586-0.68231-3.821zm-39.984 0.13646 3.5481 0.40939 0.95524 3.9575-3.548-0.68233-0.95525-3.6845zm4.5033 0.40939 3.5481 0.40939 1.0917 3.6845-3.5481-0.4094-1.0917-3.6845zm39.847 0.13647 3.6845 0.54585 0.6823 3.6845-3.548-0.40939-0.81879-3.821zm-35.071 0.40939 3.5481 0.40941 0.68231 3.6845-3.5481-0.40939-0.68231-3.6845zm39.711 0.27293 3.4116 0.4094 0.68232 3.548-3.4116-0.54585-0.68233-3.4116zm-35.208 0.27293 3.4116 0.40939 0.95524 3.821-3.4116-0.40938-0.95524-3.821zm39.574 0.13647 3.5481 0.27292 0.95525 3.9574-3.548-0.40938-0.95526-3.821zm-34.935 0.54585 3.4116 0.27293 0.81879 3.821-3.548-0.40938-0.68233-3.6845zm39.711 0.13647 3.548 0.40939 0.68233 3.548-3.548-0.40938-0.68232-3.548zm-35.344 0.27292 3.6845 0.40938 0.95524 3.6845-3.6845-0.40939-0.95523-3.6845zm39.847 0 1.6375 0.40938 0.40939 3.6845-1.0917-0.13646-0.95523-3.9574zm-35.208 0.54585 3.4116 0.54585 0.95525 3.6845-3.5481-0.40939-0.81879-3.821zm4.2304 0.27292 3.5481 0.54586 0.81878 3.6845-3.548-0.40939-0.8188-3.821zm4.5033 0.81879 3.548 0.27293 0.95524 3.9575-3.4116-0.54586-1.0917-3.6845zm-36.709 0.13647 0.81878 0.40939 0.40939 1.9105-1.2282-2.3199zm1.774 0.40939 3.548 0.40939 0.81878 3.6845-3.4116-0.40937-0.95524-3.6845zm39.847 0 3.4116 0.40939 0.68233 3.548-3.4116-0.40938-0.68233-3.5481zm4.3668 0.40939 3.548 0.40938 0.95525 3.821-3.4116-0.40939-1.0917-3.821zm-39.711 0.13647 3.6845 0.27291 0.95524 3.6845-3.6845-0.27292-0.95526-3.6845zm44.214 0.40938 3.548 0.40939 0.68233 3.9574-3.4116-0.54585-0.81878-3.821zm-39.574 0.13647 3.5481 0.40938 0.81877 3.6845-3.548-0.40939-0.81879-3.6845zm4.5033 0.27292 3.4116 0.54585 0.95525 3.9574-3.548-0.40939-0.81879-4.0939zm39.574 0.27293 3.548 0.40939 0.81878 3.6845-3.5481-0.40939-0.81877-3.6845zm4.6398 0.40939 3.5481 0.40939 0.6823 3.6845-3.2751-0.40939-0.95525-3.6845zm-39.574 0.27292 3.548 0.27294 0.68232 3.6845-3.5481-0.40941-0.6823-3.5481zm4.5033 0.27294 3.548 0.40939 0.81879 3.821-3.4116-0.54584-0.95524-3.6845zm39.574 0 1.3646 0.13645v3.821l-0.54586-0.27292-0.81878-3.6845zm-34.935 0.54586 3.4116 0.54586 0.95524 3.548-3.6845-0.27293-0.68232-3.821zm4.2304 0.54586 3.4116 0.54584 0.95523 3.5481-3.548-0.40939-0.81878-3.6845zm4.3668 0.40937 3.5481 0.40939 0.95526 3.9574-3.4116-0.40939-1.0917-3.9574zm4.9127 0.54586 3.4116 0.54586 0.95523 3.6845-3.5481-0.27294-0.81877-3.9574zm-39.847 0.13647 3.548 0.40939 0.68234 3.6845-1.3646-0.27294-2.8657-3.821zm4.5033 0.40939 3.548 0.40938 0.81879 3.6845-3.548-0.54586-0.81879-3.548zm39.711 0 3.4116 0.54585 1.0917 3.821-3.5481-0.40941-0.95524-3.9574zm-35.208 0.27292 3.6845 0.68232 0.8188 3.6845-3.6845-0.27291-0.81877-4.0939zm39.847 0.54585 3.548 0.40941 0.68232 3.548-3.4116-0.40938-0.81877-3.5481zm-35.208 0.27295 3.4116 0.54584 0.81877 3.4116-3.548-0.40939-0.68231-3.548zm39.574 0.13646 3.6845 0.40938 0.95523 3.821-3.6845-0.27292-0.95524-3.9574zm-35.208 0.27291 3.4116 0.54586 0.95525 3.6845-3.2751-0.40939-1.0917-3.821zm39.711 0.13647 3.6845 0.54586 0.81879 3.2751v0.4094l-3.548-0.4094-0.95525-3.821zm-34.935 0.68231 3.548 0.27294 0.68232 3.548-3.548-0.40939-0.68233-3.4116zm4.5033 0.27294 3.4116 0.54585 1.0917 3.821-3.5481-0.40939-0.95524-3.9574zm4.3668 0.54585 3.4116 0.40939 0.95526 3.6845-3.5481-0.40938-0.81877-3.6845zm4.3668 0.68231 3.6845 0.27294 0.81879 3.9574-3.4116-0.40939-1.0917-3.821zm4.5033 0.27294 3.6845 0.68232 0.95524 3.548-3.548-0.40939-1.0917-3.821zm-35.071 0.54585 3.6845 0.27292 0.81879 3.6845-2.8657-0.13645-0.95526-0.95526-0.68231-2.8657zm39.847 0.13647 3.5481 0.40939 0.81877 3.821-3.6845-0.54584-0.68233-3.6845zm-35.344 0.27292 3.5481 0.40939 0.95524 3.821-3.4116-0.40939-1.0917-3.821zm39.847 0.27293 3.6845 0.54586 0.54586 3.6845-3.2751-0.40939-0.95524-3.821zm-35.071 0.40939 3.4116 0.40939 0.81878 3.5481-3.6845-0.27293-0.54584-3.6845zm39.574 0.13647 3.4116 0.54584 0.95525 3.5481-3.548-0.4094-0.8188-3.6845zm-35.344 0.40939 3.6845 0.27292 0.8188 3.9574-3.4116-0.54583-1.0917-3.6845zm39.984 0.13645 3.0022 0.27294-1.0917 3.548-0.95523-0.27291-0.95525-3.5481zm-35.208 0.27294 3.4116 0.40937 0.95524 3.6845-3.548-0.4094-0.81879-3.6845zm4.5033 0.54584 3.5481 0.4094 0.81878 3.821-3.2751-0.40939-1.0917-3.821zm4.3668 0.54587 3.4116 0.13646 0.95524 4.0939-3.4116-0.54585-0.95525-3.6845zm4.6398 0.54585 3.4116 0.54586 0.81878 3.4116-3.548-0.40939-0.68231-3.5481zm4.5033 0.27292 3.548 0.40939 0.95526 3.9575-3.6845-0.27294-0.81879-4.0939zm-33.707 0.81879 2.047 0.13646 0.27292 1.9105-2.3199-2.047zm38.21 0.13646 3.6845 0.27293 0.68231 3.548-3.5481-0.40938-0.81877-3.4116zm-35.071 0.13647 3.4116 0.54584 0.95523 3.5481-2.4563-0.13647-1.2282-1.0917-0.68231-2.8657zm39.574 0.13646 3.4116 0.54585 0.95527 3.6845-3.5481-0.40941-0.81878-3.821zm-35.071 0.54585 3.548 0.27293 0.68233 3.9574-3.4116-0.40939-0.81879-3.821zm39.574 0.13645 3.5481 0.40941 0.54583 2.3199-0.81877 1.2282-2.3199-0.27293-0.95525-3.6845zm-35.208 0.27295 3.548 0.40938 0.95526 3.9575-3.5481-0.68232-0.95523-3.6845zm39.984 0.13646h0.27294l-0.27294 0.81878v-0.81878zm-35.208 0.27292 3.5481 0.68233 0.81877 3.548-3.6845-0.27292-0.68232-3.9575zm4.3668 0.68233 3.5481 0.54585 0.81878 3.6845-3.4116-0.54584-0.95526-3.6845zm4.3668 0.54585 3.548 0.40939 0.81878 3.6845-3.4116-0.40939-0.95524-3.6845zm4.6398 0.54586 3.4116 0.40938 0.95525 3.6845-3.548-0.27295-0.8188-3.821zm4.6398 0.54584 3.548 0.4094 0.81879 3.6845-3.5481-0.40939-0.81877-3.6845zm4.5033 0.54587 3.548 0.40939 0.68231 3.6845-3.2751-0.40939-0.95524-3.6845zm4.3668 0.54585 3.548 0.40939 0.68232 2.4564-1.2282 1.0917-2.1834-0.27293-0.81879-3.6845zm-36.845 0.40939h0.81879l0.27292 0.68232-1.0917-0.68232zm1.774 0 3.5481 0.68232 0.81876 3.0022-4.0939-2.3199-0.27292-1.3646zm39.574 0.13647 1.6376 0.13645-1.0917 1.3646-0.54585-1.5011zm-34.935 0.6823 3.548 0.27293 0.68232 3.6845-2.7293-0.13646-0.81878-0.54586-0.68232-3.2751zm4.6398 0.27293 3.4116 0.54586 0.95526 3.6845-3.4116-0.40941-0.95525-3.821zm4.6398 0.68231 3.548 0.40941 0.68232 3.6845-3.4116-0.54585-0.81878-3.5481zm4.0939 0.40941 3.6845 0.40939 0.81879 3.9574-3.4116-0.54586-1.0917-3.821zm4.6398 0.68231 3.4116 0.4094 0.95523 3.548-3.548-0.40938-0.81879-3.5481zm4.6398 0.4094 3.4116 0.40939 0.81877 3.2751-0.68232 0.4094-2.7293-0.27293-0.81879-3.821zm4.3668 0.54584 3.6845 0.4094 0.27291 1.0917-3.1386 1.6375-0.81879-3.1387zm4.7762 0.54585 0.54585 0.13647-0.68232 0.27293 0.13647-0.4094zm266.24 241.13c0.98691-0.19429 2.4768 0.73257 4.6398 2.5928 1.8684 1.6068 4.0881 2.8649 4.9127 2.8657 2.7336 0.003 1.9706 11.598-1.0917 15.966-1.4842 2.1172-3.1898 4.0105-3.6845 4.2304-0.49479 0.21986-1.1352 1.5503-2.047 2.3199-1.7321 1.5893-5.1151 4.8043-5.4585 5.3221-0.37709 0.56852-0.65564-3.6416-0.81879-8.4608 0.22075-11.069-1.2531-24.711 3.548-24.836z" transform="translate(-206.14 -34.902)"/>
      <path id="path3751" d="m415.56 64.538c-5.8698-1.7708-8.3403-9.9202-3.9525-14.341 6.4645-4.441 3.2819-2.5539 9.4141-6.414 2.7238 5.8143 5.7956 9.2279 9.2652 14.609-5.53 2.9981-7.8265 7.0868-14.11 6.3547l-0.61686-0.20912zm16.887-7.017c3.6619 0.05885 1.4656-1.9544 0.0497-3.4238-1.941 0.45464-4.0318 0.79496-0.96124-0.30721 0.38769-0.96907-1.2404-3.4259-2.7745-2.1997-3.7618 0.54309 2.6899-0.4165 0.42934-2.0013-0.70262-0.79015-0.90267-3.0442-2.2635-1.9171-3.2923 1.0503 2.0639-0.54381 0.077-1.9258-0.0977-3.2848-3.1153-0.46067-3.7187-0.24259 0.82136-0.94687 2.1833-1.7323 2.6796-2.7763-0.18196-2.198-1.056-3.4105-2.6851-0.96227-2.0009 1.016 3.354-2.7574 1.4255-4.41-0.71673-3.8995 0.67813 3.4498 1.996-0.114 1.223-1.1461 3.3838-5.171 4.2371-4.6744 0.2624 2.9272-2.9645 4.3596-4.6554 6.3549-0.70337 1.532 1.4652 4.448 2.7848 1.4856 2.4182-1.857 5.3574-3.9556 2.6228-6.9572-0.79967-1.5427-3.6549-6.8987 0.0675-5.0052 2.7088 6.7391 5.6119 13.456 9.9379 19.376 1.7926 2.9898 4.5324 5.362 6.8679 7.8373-0.86887 0.38037-4.7725-3.0519-2.8317-0.19299-2.4186 0.66217-5.9745 0.5356-7.721 1.712 1.7745 1.627-3.6287-0.52978-4.8571 0.40705-0.32525 0.1229-2.2753 0.39596-0.70678-0.06295zm7.754-2.3c2.4542-0.32202 6.3262-1.847 2.3183-3.2661-2.7737 0.5003-5.5159 1.1516-8.2703 1.7426 1.7659 1.8979 3.2602 3.0257 5.9521 1.5235zm-5.2571-2.7324c2.1489-0.81016 5.3012-2.2221 6.9426-2.4068-0.69615-2.0301-2.2256-1.9291-3.8478-1.1977-2.1945 0.90496-8.5024 1.111-4.6607 4.1327 0.53586-0.1343 1.0477-0.34201 1.5658-0.52822zm0.4724-4.5897c3.2936-0.15613 4.1147-3.6984 1.1707-4.0922-2.1526 1.2884-5.5938 1.8683-7.2742 3.1283 0.97614 2.7051 3.0515 3.3991 5.4101 1.2987l0.69345-0.33467h-0.00009zm-0.20554-7.8804c-1.6518-3.3859-5.0615 2.1142-7.4535 2.7881 0.29117 0.9522 0.64681 4.2972 2.2056 2.6133l6.2911-3.681c-0.34773-0.57343-0.69545-1.1469-1.0432-1.7203zm15.853 13.742c1.1488-1.6794-0.82094-1.5224-2.044-1.8053-0.82179-0.46412-3.266 0.05142-2.8291-1.1727 0.63673-2.0316 1.8197-4.9614-1.6842-3.9447-3.7779 0.46863 1.1034-8.3613-3.3347-6.0253-1.6726 0.98332-0.48572-1.8045-0.71567-2.7194 0.35899-1.9766 0.61898-4.4761-2.0888-2.6378-2.7733 0.41195-0.3318-4.9209-0.90057-6.857-0.0646-1.4864-4.45 2.1626-3.0491-0.98128 0.82652-3.3305 1.5453-6.7411 2.5583-10.004 2.9288-3.8137 5.2847-8.061 8.5297-11.611 2.9778-2.2562 5.9303-4.786 9.5395-6.001 0.29607 3.177-0.077 4.244-0.28171 7.516-0.12359 1.3986 2.3622 0.81499 3.3343 1.3816 5.086-0.41854-0.69274 6.772 2.2667 7.7771 1.829-0.28669 3.2951 0.98901 3.8161 2.6344 0.47467 2.3761-2.0823 6.2364-0.45644 7.8663 1.7844 0.57623 3.5821 1.124 5.312 1.8476 0.10996 2.9881 0.14742 5.9814 0.41962 8.961 2.7935 0.6907 5.6718 1.1346 8.3805 2.0972-1.0052 2.2632-3.3286 5.5381 0.93957 4.9562 1.6028 0.16263 3.865 0.09622 2.6528 2.2478 1.7262 0.60784 3.4854 1.2528 4.5079 2.2153-6.2364 2.132-12.441 4.4748-18.697 6.4759-5.4684-0.31396-11.023-0.37173-16.422-0.91764-0.0893-0.44536 0.17446-0.87584 0.24656-1.2986z"/>
      <path id="path1917" d="m265.8 462.71c-22.97 20.884-33.752 41.517-41.169 59.115-6.5218 15.474-10.578 26.621-11.08 38.078-1.005 22.913 1.7276 39.999-20.47 70.437l10.668 7.7898c24.181-33.158 17.69-56.039 18.6-76.795 0.45521-10.378 3.0415-20.523 9.9426-33.514 6.901-12.991 20.296-24.576 42.55-44.811l-9.0425-20.3z" fill-rule="evenodd"/>
      <path id="path2810" d="m180.84 654.55c-0.85451-7.7421 0.39593-18.106 4.231-28.879 3.0181-8.4779 9.5322-14.121 19.998-14.243 2.358-0.0276 5.7361-3.1932 8.9477 5.5782 3.1629 8.638 2.766 15.463-6.4989 22.849-9.0109 7.1837-20.542 3.2964-26.678 14.695z" fill-rule="evenodd"/>
    </g>
  </g>
  <metadata>
    <rdf:RDF>
      <cc:Work>
        <dc:format>image/svg+xml</dc:format>
        <dc:type rdf:resource="http://purl.org/dc/dcmitype/StillImage"/>
        <cc:license rdf:resource="http://creativecommons.org/licenses/publicdomain/"/>
        <dc:publisher>
          <cc:Agent rdf:about="http://openclipart.org/">
            <dc:title>Openclipart</dc:title>
          </cc:Agent>
        </dc:publisher>
        <dc:title>logo bad lion</dc:title>
        <dc:date>2011-08-24T20:32:20</dc:date>
        <dc:description>Logo for Centrale Lyon 2009 badminton club</dc:description>
        <dc:source>http://openclipart.org/detail/158017/logo-bad-lion-by-steren</dc:source>
        <dc:creator>
          <cc:Agent>
            <dc:title>Steren</dc:title>
          </cc:Agent>
        </dc:creator>
        <dc:subject>
          <rdf:Bag>
            <rdf:li>badminton</rdf:li>
            <rdf:li>clip art</rdf:li>
            <rdf:li>clipart</rdf:li>
            <rdf:li>club</rdf:li>
            <rdf:li>lion</rdf:li>
            <rdf:li>sport</rdf:li>
          </rdf:Bag>
        </dc:subject>
      </cc:Work>
      <cc:License rdf:about="http://creativecommons.org/licenses/publicdomain/">
        <cc:permits rdf:resource="http://creativecommons.org/ns#Reproduction"/>
        <cc:permits rdf:resource="http://creativecommons.org/ns#Distribution"/>
        <cc:permits rdf:resource="http://creativecommons.org/ns#DerivativeWorks"/>
      </cc:License>
    </rdf:RDF>
  </metadata>
</svg>
